<?xml version="1.0" encoding="utf-8"?>
<!-- Generator: Adobe Illustrator 19.0.0, SVG Export Plug-In . SVG Version: 6.00 Build 0)  -->
<svg version="1.1" id="Layer_1" xmlns="http://www.w3.org/2000/svg" xmlns:xlink="http://www.w3.org/1999/xlink" x="0px" y="0px"
	 viewBox="0 0 100 100" style="enable-background:new 0 0 100 100;" xml:space="preserve">
<style type="text/css">
	.st0{fill:#484E55;}
	.st1{fill:#2A2B6B;}
	.st2{fill:#DC2727;}
</style>
<g id="XMLID_4_">
	<path id="XMLID_199_" class="st0" d="M67,96.4h-5.6L61,99.3h6.7L67,96.4z"/>
</g>
<path id="XMLID_19_" class="st1" d="M64.5,32l-0.1-0.2c-0.2-0.5-0.4-1-0.6-1.4l-0.2-0.4l-1.4,1.4c-0.6-1.3-1.9-2.3-3.5-2.3h-4.2
	c-1.7,0-3.1,1.1-3.6,2.7h-1.2c-0.5-1.5-1.9-2.7-3.6-2.7h-4.2c-1.5,0-2.8,0.9-3.5,2.2L37,29.9l-0.2,0.4c-0.2,0.5-0.4,0.9-0.6,1.4
	l-0.1,0.2l1.9,2v0.3c0,2.1,1.7,3.8,3.8,3.8h4.2c2.1,0,3.8-1.7,3.8-3.8v-0.4h0.8v0.4c0,2.1,1.7,3.8,3.8,3.8h4.2
	c2.1,0,3.8-1.7,3.8-3.8V34L64.5,32z M47.9,34.3c0,1-0.8,1.8-1.8,1.8h-4.2c-1,0-1.8-0.8-1.8-1.8V33c0-1,0.8-1.8,1.8-1.8h4.2
	c1,0,1.8,0.8,1.8,1.8V34.3z M60.6,34.3c0,1-0.8,1.8-1.8,1.8h-4.2c-1,0-1.8-0.8-1.8-1.8V33c0-1,0.8-1.8,1.8-1.8h4.2
	c1,0,1.8,0.8,1.8,1.8V34.3z"/>
<g id="XMLID_2_">
	<g id="XMLID_130_">
		<path id="XMLID_131_" class="st2" d="M80.1,62.6C80.1,62.6,80.1,62.6,80.1,62.6l-20.3-7.9v-5c3.3-2.5,5.5-6.2,6-10.5
			c1.6-0.1,3.1-0.7,4.3-1.7c1.5-1.3,2.4-3.2,2.4-5.2c0-1.7-0.6-3.3-1.7-4.6v-6.3c0-11.4-9.3-20.6-20.6-20.6
			c-11.4,0-20.6,9.3-20.6,20.6v6.5c-1.1,1.2-1.7,2.8-1.7,4.4c0,2,0.9,3.9,2.4,5.2c1.2,1,2.7,1.6,4.3,1.7c0.4,3.4,1.9,6.5,4.3,9
			c0.6,0.7,1.3,1.2,2.1,1.8v4.8l-20.3,7.9c0,0,0,0,0,0c-0.4,0.1-8.7,3.7-8.7,13.5V96c0,1.8,1.5,3.3,3.3,3.3h70.5
			c1.8,0,3.3-1.5,3.3-3.3V76.1C88.8,66.3,80.5,62.8,80.1,62.6z M64,59.5l-5.2,10.4l-6.4-4.5c0,0,0,0,0,0l4.9-6l1.5-1.8L64,59.5z
			 M54,70l-1.5,2.2h-4.5L46.6,70l3.7-2.6L54,70z M43.7,55.2v-3.6c1.9,0.8,4,1.3,6.2,1.3h0c0,0,0.1,0,0.1,0c0,0,0,0,0,0h0.1
			c0,0,0,0,0.1,0h0.3c0,0,0,0,0.1,0h0c0,0,0,0,0.1,0h0c0,0,0,0,0.1,0h0c0,0,0,0,0.1,0c0,0,0,0,0,0c0,0,0,0,0.1,0c0,0,0,0,0,0
			c0,0,0,0,0.1,0c0,0,0,0,0,0c0,0,0,0,0.1,0c0,0,0,0,0,0c0,0,0.1,0,0.1,0h0c0,0,0.1,0,0.1,0c0,0,0,0,0,0c0,0,0.1,0,0.1,0
			c0,0,0,0,0,0c0.3,0,0.6-0.1,0.9-0.1c0.8-0.1,1.5-0.3,2.3-0.5c0.7-0.2,1.5-0.5,2.1-0.8v3.7l-6.6,8.1L43.7,55.2z M68.4,29.4
			c0.8,0.8,1.2,1.8,1.2,2.9c0,1.2-0.5,2.3-1.4,3c-0.7,0.6-1.5,0.9-2.3,1v-8.1c0.7,0.1,1.3,0.3,1.8,0.6c0,0,0,0,0,0c0,0,0,0,0.1,0
			C68,29,68.2,29.2,68.4,29.4C68.4,29.4,68.4,29.4,68.4,29.4z M34.4,36.3c-0.9-0.1-1.7-0.4-2.3-1c-0.9-0.8-1.4-1.9-1.4-3
			c0-1,0.4-2,1.2-2.7c0,0,0,0,0,0c0.7-0.6,1.6-1.1,2.5-1.2V36.3z M35.4,23.8c0,0-0.1,0.1-0.1,0.1c-0.1,0.1-0.2,0.2-0.3,0.3
			c0,0,0,0,0,0c0,0,0,0.1-0.1,0.1c0,0,0,0,0,0c0,0,0,0.1-0.1,0.1c0,0,0,0,0,0c0,0,0,0,0,0c0,0,0,0,0,0c0,0,0,0,0,0c0,0,0,0,0,0
			c0,0,0,0,0,0c0,0,0,0,0,0c0,0,0,0,0,0c0,0,0,0,0,0c0,0,0,0,0,0c0,0,0,0,0,0c0,0,0,0,0,0c0,0,0,0,0,0c0,0,0,0,0,0c0,0,0,0,0,0
			c0,0,0,0,0,0c0,0,0,0,0,0c0,0,0,0,0,0c0,0,0,0,0,0c0,0,0,0,0,0c0,0,0,0,0,0l0,0c0,0,0,0,0,0c0,0,0,0,0,0c0,0,0,0,0,0c0,0,0,0,0,0
			c0,0,0,0,0,0c0,0,0,0,0,0c0,0,0,0,0,0c0,0,0,0,0,0c0,0,0,0,0,0c0,0,0,0,0,0c0,0,0,0,0,0c0,0,0,0,0,0c0,0,0,0,0,0c0,0,0,0,0,0
			c0,0,0,0,0,0c0,0,0,0,0,0c0,0,0,0,0,0c0,0,0,0,0,0c-0.7,0.1-1.4,0.2-2.1,0.5v-4.5c0-9.8,8-17.8,17.8-17.8c9.8,0,17.8,8,17.8,17.8
			v4.4c-0.6-0.2-1.3-0.4-2-0.4V25c0-1.1-0.2-1.3-2.9-4.2c-0.1-0.1-0.2-0.2-0.3-0.3c-0.5-0.5-1-1.1-1.7-1.8c-0.1-0.1-0.3-0.3-0.4-0.4
			c-0.9-1-2.3-1.2-3.4-0.5c0,0-0.1,0-0.1,0.1c-2,1.3-4.1,2.4-6.3,3.2c0,0-0.1,0-0.1,0c-0.4,0.2-0.9,0.3-1.3,0.5c0,0,0,0,0,0
			c-3.9,1.3-8,1.9-11.9,1.6c0,0-0.1,0-0.1,0C36.6,23.1,35.9,23.4,35.4,23.8z M37.3,37.8C37.3,37.8,37.3,37.7,37.3,37.8l0-0.2
			c0-0.1,0-0.1,0-0.2V26.1c3.5,0.2,7.2-0.1,10.8-1.1c3.6-1,7.1-2.5,10.3-4.5c0.1,0,0.1-0.1,0.2-0.1c0.1,0.1,0.2,0.3,0.4,0.4
			c0,0,0.1,0.1,0.1,0.1c0,0,0.1,0.1,0.1,0.1c0,0,0,0,0,0c0,0,0.1,0.1,0.1,0.1c0.5,0.6,1,1.1,1.4,1.5c0.1,0.1,0.2,0.2,0.2,0.2
			c0.2,0.2,0.4,0.4,0.5,0.5c0,0,0,0,0,0c0,0,0.1,0.1,0.1,0.1c0.7,0.8,1.2,1.3,1.4,1.6c0,0,0,0,0,0v12.3c0,0.1,0,0.1,0,0.2l0,0.1
			c0,0,0,0.1,0,0.1c-0.1,4.1-2.2,7.7-5.4,10c0,0-0.1,0-0.1,0c-1.9,1.3-4.1,2.1-6.3,2.2c0,0,0,0,0,0c-0.1,0-0.2,0-0.2,0c0,0,0,0,0,0
			c0,0-0.1,0-0.1,0h0c0,0-0.1,0-0.1,0h0c0,0-0.1,0-0.1,0h-0.1c0,0-0.1,0-0.1,0h-0.1c0,0,0,0,0,0c-1.9,0-3.6-0.4-5.2-1.1
			C40.2,47,37.4,42.4,37.3,37.8z M41.8,57.5l6.4,7.9c0,0,0,0,0,0l-6.4,4.5l-5.2-10.4L41.8,57.5z M28,96.4V79.2
			c0-0.8-0.6-1.4-1.4-1.4c-0.8,0-1.4,0.6-1.4,1.4v17.2H15.1c-0.2,0-0.4-0.2-0.4-0.4V76.1c0-7.8,6.6-10.7,6.9-10.8l12.3-4.8l5.4,10.8
			c0.2,0.4,0.4,0.7,0.7,0.9c0.3,0.2,0.7,0.4,1,0.5c0.2,0.1,0.4,0.1,0.7,0.1c0.6,0,1.1-0.2,1.6-0.5l0.9-0.6l1.5,2.3L42,96.4H28z
			 M44.9,96.4l3.6-21.2h3.6l2.4,13.7c0,0.1,0,0.2,0,0.3l1.2,7.2H44.9z M85.9,96c0,0.2-0.2,0.4-0.4,0.4H75.5V79.2
			c0-0.8-0.6-1.4-1.4-1.4c-0.8,0-1.4,0.6-1.4,1.4v17.2h-14l-0.9-5.3c0-0.1,0-0.2,0-0.3L54.8,74l1.5-2.3l0.9,0.6
			c0.5,0.3,1,0.5,1.6,0.5c0.2,0,0.4,0,0.7-0.1c0.8-0.2,1.4-0.7,1.8-1.4l5.4-10.8L79,65.3c0.4,0.2,6.9,3.1,6.9,10.8V96z"/>
	</g>
</g>
</svg>
