<?xml version="1.0" encoding="utf-8"?>
<!-- Generator: Adobe Illustrator 19.0.0, SVG Export Plug-In . SVG Version: 6.00 Build 0)  -->
<svg version="1.1" id="Layer_1" xmlns="http://www.w3.org/2000/svg" xmlns:xlink="http://www.w3.org/1999/xlink" x="0px" y="0px"
	 viewBox="0 0 100 100" style="enable-background:new 0 0 100 100;" xml:space="preserve">
<style type="text/css">
	.st0{fill:#2A2B6B;}
	.st1{fill:#DC2827;}
</style>
<path id="XMLID_17_" class="st0" d="M75.1,36.5c-0.8,0-1.5-0.3-2-1c-0.9-1.1-0.7-2.7,0.4-3.6l6.7-5.2l-6.7-5.2
	c-1.1-0.9-1.3-2.5-0.4-3.6c0.9-1.1,2.5-1.3,3.6-0.4l9.2,7.3c0.6,0.5,1,1.2,1,2c0,0.8-0.4,1.5-1,2L76.6,36
	C76.2,36.3,75.6,36.5,75.1,36.5z"/>
<path id="XMLID_29_" class="st1" d="M79.7,54c-1.4,0-2.6,1.1-2.6,2.6v20.2L53.7,57.1l14.7-12.4c-1.5-0.9-2.9-2-4.1-3.3L41.6,60.6
	L6.1,30.7V26h52.1c0-1.8,0.3-3.5,0.8-5.1H3.6C2.2,20.9,1,22,1,23.4V83c0,1.4,1.1,2.6,2.6,2.6h76.1c1.4,0,2.6-1.1,2.6-2.6V56.5
	C82.2,55.1,81.1,54,79.7,54z M6.1,37.4l23.4,19.7L6.1,76.8V37.4z M9.8,80.4l23.7-20l6.5,5.5c0.5,0.4,1.1,0.6,1.7,0.6
	c0.6,0,1.2-0.2,1.7-0.6l6.5-5.5l23.7,20H9.8z"/>
<path id="XMLID_31_" class="st0" d="M78.9,5.5c-11.7,0-21.1,9.5-21.1,21.1c0,11.7,9.5,21.1,21.1,21.1c11.7,0,21.1-9.5,21.1-21.1
	C100,15,90.5,5.5,78.9,5.5z M78.9,42.3c-8.6,0-15.6-7-15.6-15.6c0-8.6,7-15.6,15.6-15.6c8.6,0,15.6,7,15.6,15.6
	C94.5,35.3,87.5,42.3,78.9,42.3z"/>
</svg>
