<?xml version="1.0" encoding="utf-8"?>
<!-- Generator: Adobe Illustrator 19.0.0, SVG Export Plug-In . SVG Version: 6.00 Build 0)  -->
<svg version="1.1" id="Layer_1" xmlns="http://www.w3.org/2000/svg" xmlns:xlink="http://www.w3.org/1999/xlink" x="0px" y="0px"
	 viewBox="0 0 100 100" style="enable-background:new 0 0 100 100;" xml:space="preserve">
<style type="text/css">
	.st0{fill:#DC2827;}
	.st1{fill:#2A2B6B;}
</style>
<g id="XMLID_20_">
	<circle id="XMLID_39_" class="st0" cx="49.7" cy="9.3" r="1.7"/>
	<circle id="XMLID_41_" class="st0" cx="13" cy="30.5" r="1.7"/>
	<circle id="XMLID_46_" class="st0" cx="86.3" cy="30.5" r="1.7"/>
	<circle id="XMLID_59_" class="st0" cx="49.6" cy="91.5" r="1.7"/>
	<circle id="XMLID_55_" class="st0" cx="86.3" cy="70.3" r="1.7"/>
	<circle id="XMLID_50_" class="st0" cx="13" cy="70.3" r="1.7"/>
	<path id="XMLID_84_" class="st1" d="M90,63.8c1.4-4.3,2.2-8.8,2.2-13.5c0-4.7-0.8-9.2-2.2-13.4c2.2-1.3,3.7-3.7,3.7-6.4
		c0-4.1-3.4-7.5-7.5-7.5c-1.2,0-2.3,0.3-3.3,0.8c-6.3-7.9-15.4-13.5-25.8-15.3c-0.4-3.7-3.6-6.6-7.5-6.6c-3.9,0-7,2.9-7.5,6.6
		c-10.4,1.8-19.5,7.5-25.8,15.4c-1-0.5-2.2-0.8-3.4-0.8c-4.1,0-7.5,3.4-7.5,7.5c0,2.8,1.5,5.2,3.8,6.5C8,41.2,7.2,45.7,7.2,50.3
		c0,4.7,0.8,9.2,2.2,13.5c-2.3,1.3-3.9,3.7-3.9,6.6c0,4.2,3.4,7.5,7.5,7.5c1.3,0,2.5-0.3,3.6-0.9c6.3,7.8,15.2,13.3,25.5,15.2
		c0.3,3.9,3.5,6.9,7.5,6.9c3.9,0,7.1-3,7.5-6.8c10.4-1.8,19.5-7.3,25.8-15.2c1,0.5,2.2,0.8,3.4,0.8c4.1,0,7.5-3.4,7.5-7.5
		C93.8,67.5,92.3,65.1,90,63.8z M82.4,27.8c0.6-0.8,1.4-1.4,2.3-1.8c0.5-0.2,1-0.3,1.6-0.3c2.6,0,4.7,2.1,4.7,4.7
		c0,1.5-0.7,2.9-1.9,3.7c-0.8,0.6-1.7,0.9-2.7,1c0,0-0.1,0-0.1,0c-2.6,0-4.7-2.1-4.7-4.7C81.6,29.5,81.9,28.6,82.4,27.8z M45.2,8
		c0.5-2,2.4-3.4,4.5-3.4c2.1,0,4,1.4,4.5,3.4c0.1,0.4,0.2,0.8,0.2,1.3c0,0.6-0.1,1.1-0.3,1.6c-0.7,1.8-2.4,3.1-4.4,3.1
		c-2,0-3.7-1.3-4.4-3.1c-0.2-0.5-0.3-1-0.3-1.6C45.1,8.9,45.1,8.4,45.2,8z M42.5,11.3c0.8,2.7,2.9,4.7,5.7,5.3V23h3v-6.3
		c2.8-0.5,5-2.6,5.7-5.3c9.5,1.8,17.9,6.9,23.7,14.2c-1.2,1.3-1.9,3.1-1.9,5c0,0.7,0.1,1.4,0.3,2l-8.8,5.1
		C66,30.8,58.4,26.2,49.7,26.2c-8.7,0-16.4,4.6-20.6,11.6l-8.9-5.2c0.2-0.6,0.3-1.3,0.3-2.1c0-1.9-0.7-3.6-1.8-4.9
		C24.6,18.3,32.9,13.1,42.5,11.3z M71.1,50.3c0,11.8-9.5,21.3-21.3,21.3c-11.8,0-21.3-9.5-21.3-21.3C28.4,38.5,38,29,49.7,29
		C61.5,29,71.1,38.5,71.1,50.3z M8.4,30.5c0-2.6,2.1-4.7,4.7-4.7c0.6,0,1.2,0.1,1.7,0.3c0.9,0.4,1.7,1,2.2,1.8
		c0.5,0.7,0.7,1.6,0.7,2.5c0,2.6-2.1,4.7-4.6,4.7H13c-1,0-1.9-0.3-2.7-0.8C9.1,33.5,8.4,32.1,8.4,30.5z M17.1,72.7
		c-0.5,0.8-1.3,1.5-2.2,1.9C14.3,74.9,13.7,75,13,75c-2.6,0-4.7-2.1-4.7-4.7c0-1.6,0.8-3,2.1-3.9c0.8-0.5,1.7-0.8,2.6-0.8
		c0.1,0,0.1,0,0.2,0c2.5,0.1,4.5,2.2,4.5,4.7C17.7,71.2,17.5,72,17.1,72.7z M13,62.8c-0.3,0-0.6,0-0.9,0.1c-1.3-4-2-8.2-2-12.6
		c0-4.3,0.7-8.5,2-12.4c0.3,0.1,0.6,0.1,1,0.1c2.4,0,4.5-1.1,5.8-2.8l8.9,5.2c-1.4,3-2.1,6.4-2.1,9.9c0,3.6,0.8,7,2.2,10.1l-8.9,5.2
		C17.5,63.9,15.4,62.8,13,62.8z M54.1,92.6c-0.5,2.1-2.3,3.6-4.5,3.6c-2.2,0-4.1-1.6-4.6-3.7c-0.1-0.3-0.1-0.7-0.1-1
		c0-0.6,0.1-1.3,0.4-1.8c0.7-1.7,2.4-2.8,4.3-2.8c2,0,3.6,1.2,4.3,2.9c0.2,0.5,0.4,1.2,0.4,1.8C54.2,91.9,54.2,92.2,54.1,92.6z
		 M56.7,89.3c-0.8-2.6-3-4.6-5.8-5.2v-6.2h-3v6.3c-2.6,0.6-4.8,2.5-5.5,5.1c-9.5-1.8-17.8-6.9-23.6-14.2c1.1-1.3,1.7-3,1.7-4.8
		c0-0.7-0.1-1.4-0.3-2l9-5.3c4.3,6.8,11.8,11.4,20.5,11.4c8.6,0,16.1-4.5,20.4-11.2l8.9,5.2c-0.2,0.6-0.3,1.3-0.3,1.9
		c0,1.9,0.7,3.6,1.8,4.9C74.7,82.5,66.3,87.6,56.7,89.3z M80.3,65.7l-8.8-5.1c1.5-3.1,2.3-6.6,2.3-10.3c0-3.6-0.8-7-2.2-10l8.7-5.1
		c1.4,1.7,3.5,2.8,5.9,2.8c0.4,0,0.8,0,1.1-0.1c1.3,3.9,2,8.1,2,12.4c0,4.4-0.7,8.6-2,12.6c-0.3-0.1-0.7-0.1-1.1-0.1
		C83.9,62.8,81.7,63.9,80.3,65.7z M86.3,75c-0.6,0-1.2-0.1-1.7-0.3c-0.9-0.4-1.7-1-2.2-1.8c-0.5-0.7-0.8-1.6-0.8-2.6
		c0-2.6,2.1-4.7,4.7-4.7h0c1,0,2,0.3,2.7,0.9c1.2,0.9,1.9,2.2,1.9,3.8C90.9,72.9,88.8,75,86.3,75z"/>
</g>
<g id="XMLID_21_">
	<g id="XMLID_136_">
		<path id="XMLID_137_" class="st0" d="M59.8,53.7C59.8,53.7,59.7,53.7,59.8,53.7L52.9,51v-1.7c1.1-0.8,1.9-2.1,2-3.6
			c0.5,0,1.1-0.2,1.5-0.6c0.5-0.4,0.8-1.1,0.8-1.8c0-0.6-0.2-1.1-0.6-1.6v-2.1c0-3.9-3.1-7-7-7c-3.9,0-7,3.1-7,7v2.2
			c-0.4,0.4-0.6,0.9-0.6,1.5c0,0.7,0.3,1.3,0.8,1.8c0.4,0.4,0.9,0.6,1.5,0.6c0.1,1.1,0.6,2.2,1.5,3c0.2,0.2,0.5,0.4,0.7,0.6V51
			l-6.9,2.7c0,0,0,0,0,0c-0.1,0.1-3,1.3-3,4.6V65c0,0.6,0.5,1.1,1.1,1.1h23.9c0.6,0,1.1-0.5,1.1-1.1v-6.7
			C62.7,54.9,59.9,53.7,59.8,53.7z M54.3,52.6l-1.8,3.5l-2.2-1.5c0,0,0,0,0,0l1.7-2.1l0.5-0.6L54.3,52.6z M50.9,56.2L50.4,57h-1.5
			l-0.5-0.8l1.3-0.9L50.9,56.2z M47.4,51.2v-1.2c0.6,0.3,1.4,0.4,2.1,0.4h0c0,0,0,0,0,0c0,0,0,0,0,0h0c0,0,0,0,0,0h0.1c0,0,0,0,0,0
			h0c0,0,0,0,0,0h0c0,0,0,0,0,0h0c0,0,0,0,0,0c0,0,0,0,0,0c0,0,0,0,0,0c0,0,0,0,0,0c0,0,0,0,0,0c0,0,0,0,0,0c0,0,0,0,0,0
			c0,0,0,0,0,0c0,0,0,0,0,0h0c0,0,0,0,0,0c0,0,0,0,0,0c0,0,0,0,0,0c0,0,0,0,0,0c0.1,0,0.2,0,0.3,0c0.3,0,0.5-0.1,0.8-0.2
			c0.3-0.1,0.5-0.2,0.7-0.3v1.3l-2.2,2.8L47.4,51.2z M55.8,42.4c0.3,0.3,0.4,0.6,0.4,1c0,0.4-0.2,0.8-0.5,1
			c-0.2,0.2-0.5,0.3-0.8,0.3V42c0.2,0,0.4,0.1,0.6,0.2c0,0,0,0,0,0c0,0,0,0,0,0C55.6,42.3,55.7,42.3,55.8,42.4
			C55.8,42.4,55.8,42.4,55.8,42.4z M44.2,44.8c-0.3,0-0.6-0.1-0.8-0.3c-0.3-0.3-0.5-0.6-0.5-1c0-0.3,0.1-0.7,0.4-0.9c0,0,0,0,0,0
			c0.2-0.2,0.5-0.4,0.8-0.4V44.8z M44.6,40.5C44.6,40.5,44.6,40.5,44.6,40.5c-0.1,0.1-0.1,0.1-0.1,0.1c0,0,0,0,0,0c0,0,0,0,0,0h0
			c0,0,0,0,0,0c0,0,0,0,0,0c0,0,0,0,0,0c0,0,0,0,0,0c0,0,0,0,0,0c0,0,0,0,0,0c0,0,0,0,0,0c0,0,0,0,0,0c0,0,0,0,0,0c0,0,0,0,0,0
			c0,0,0,0,0,0c0,0,0,0,0,0c0,0,0,0,0,0c0,0,0,0,0,0c0,0,0,0,0,0c0,0,0,0,0,0c0,0,0,0,0,0c0,0,0,0,0,0c0,0,0,0,0,0c0,0,0,0,0,0
			c0,0,0,0,0,0c0,0,0,0,0,0l0,0c0,0,0,0,0,0c0,0,0,0,0,0c0,0,0,0,0,0c0,0,0,0,0,0c0,0,0,0,0,0c0,0,0,0,0,0c0,0,0,0,0,0c0,0,0,0,0,0
			c0,0,0,0,0,0c0,0,0,0,0,0c0,0,0,0,0,0c0,0,0,0,0,0c0,0,0,0,0,0c0,0,0,0,0,0c0,0,0,0,0,0c0,0,0,0,0,0c0,0,0,0,0,0c0,0,0,0,0,0
			c-0.2,0-0.5,0.1-0.7,0.2v-1.5c0-3.3,2.7-6,6-6c3.3,0,6,2.7,6,6v1.5c-0.2-0.1-0.4-0.1-0.7-0.1v-0.1c0-0.4-0.1-0.4-1-1.4
			c0,0-0.1-0.1-0.1-0.1c-0.2-0.2-0.4-0.4-0.6-0.6c0,0-0.1-0.1-0.1-0.2c-0.3-0.3-0.8-0.4-1.2-0.2c0,0,0,0,0,0
			c-0.7,0.4-1.4,0.8-2.1,1.1c0,0,0,0,0,0c-0.2,0.1-0.3,0.1-0.5,0.2c0,0,0,0,0,0c-1.3,0.4-2.7,0.6-4,0.5c0,0,0,0,0,0
			C45,40.3,44.8,40.4,44.6,40.5z M45.2,45.3C45.2,45.2,45.2,45.2,45.2,45.3L45.2,45.3c0-0.1,0-0.1,0-0.1v-3.8c1.2,0.1,2.5,0,3.7-0.4
			c1.2-0.3,2.4-0.8,3.5-1.5c0,0,0,0,0.1,0c0,0,0.1,0.1,0.1,0.1c0,0,0,0,0,0c0,0,0,0,0,0c0,0,0,0,0,0c0,0,0,0,0,0
			c0.2,0.2,0.3,0.4,0.5,0.5c0,0,0.1,0.1,0.1,0.1c0.1,0.1,0.1,0.1,0.2,0.2c0,0,0,0,0,0c0,0,0,0,0,0c0.2,0.3,0.4,0.4,0.5,0.5
			c0,0,0,0,0,0v4.2c0,0,0,0,0,0.1l0,0c0,0,0,0,0,0c0,1.4-0.8,2.6-1.8,3.4c0,0,0,0,0,0c-0.6,0.4-1.4,0.7-2.1,0.7c0,0,0,0,0,0
			c0,0-0.1,0-0.1,0c0,0,0,0,0,0c0,0,0,0,0,0h0c0,0,0,0,0,0h0c0,0,0,0,0,0h0c0,0,0,0,0,0h0c0,0,0,0,0,0c-0.6,0-1.2-0.1-1.8-0.4
			C46.2,48.4,45.3,46.8,45.2,45.3z M46.8,51.9l2.2,2.7c0,0,0,0,0,0l-2.2,1.5L45,52.6L46.8,51.9z M42.1,65.1v-5.8
			c0-0.3-0.2-0.5-0.5-0.5c-0.3,0-0.5,0.2-0.5,0.5v5.8h-3.4c-0.1,0-0.1-0.1-0.1-0.1v-6.7c0-2.6,2.2-3.6,2.4-3.7l4.2-1.6l1.8,3.7
			c0.1,0.1,0.1,0.2,0.2,0.3c0.1,0.1,0.2,0.1,0.4,0.2c0.1,0,0.1,0,0.2,0c0.2,0,0.4-0.1,0.5-0.2l0.3-0.2l0.5,0.8l-1.3,7.6H42.1z
			 M47.8,65.1l1.2-7.2h1.2l0.8,4.7c0,0,0,0.1,0,0.1l0.4,2.4H47.8z M61.7,65c0,0.1-0.1,0.1-0.1,0.1h-3.4v-5.8c0-0.3-0.2-0.5-0.5-0.5
			c-0.3,0-0.5,0.2-0.5,0.5v5.8h-4.7l-0.3-1.8c0,0,0-0.1,0-0.1l-1-5.7l0.5-0.8L52,57c0.2,0.1,0.3,0.2,0.5,0.2c0.1,0,0.1,0,0.2,0
			c0.3-0.1,0.5-0.2,0.6-0.5l1.8-3.7l4.2,1.6c0.1,0.1,2.4,1,2.4,3.7V65z"/>
	</g>
</g>
</svg>
