<?xml version="1.0" encoding="utf-8"?>
<!-- Generator: Adobe Illustrator 19.0.0, SVG Export Plug-In . SVG Version: 6.00 Build 0)  -->
<svg version="1.1" id="Layer_1" xmlns="http://www.w3.org/2000/svg" xmlns:xlink="http://www.w3.org/1999/xlink" x="0px" y="0px"
	 viewBox="0 0 100 100" style="enable-background:new 0 0 100 100;" xml:space="preserve">
<style type="text/css">
	.st0{fill:#DC2827;}
	.st1{fill:#2A2B6B;}
</style>
<g id="XMLID_53_">
	<path id="XMLID_75_" class="st0" d="M70.2,63.2c1,0,1.8-0.8,1.8-1.8c0-1-0.8-1.8-1.8-1.8c-1,0-1.8,0.8-1.8,1.8
		C68.4,62.4,69.2,63.2,70.2,63.2L70.2,63.2z M70.2,63.2"/>
	<path id="XMLID_56_" class="st0" d="M21.6,62.2c1.1,4.8,2.9,9.4,5.3,13.6c2.4,4.3,5.4,8.2,8.8,11.7l0.1,0.1v7.6
		c0,1,0.8,1.8,1.8,1.8h32.6c1,0,1.8-0.8,1.8-1.8v-7.8c4.7-7.2,7.3-15.7,7.3-24.5V48.7c0-4-3.3-7.3-7.3-7.3c-1.5,0-2.9,0.5-4,1.2
		c-1-2.8-3.7-4.9-6.8-4.9c-1.5,0-2.9,0.5-4,1.2c-1-2.8-3.7-4.9-6.8-4.9c-1.3,0-2.5,0.3-3.6,1V18.6c0-4-3.2-7.3-7.3-7.3
		c-4,0-7.3,3.3-7.3,7.3v26.1l-5,3.3C22.6,51.1,20.4,56.8,21.6,62.2L21.6,62.2z M29.2,51l2.9-2v12.3c0,1,0.8,1.8,1.8,1.8
		c1,0,1.8-0.8,1.8-1.8V18.6c0-2,1.6-3.6,3.6-3.6c2,0,3.6,1.6,3.6,3.6v35.5c0,1,0.8,1.8,1.8,1.8c1,0,1.8-0.8,1.8-1.8V41.5
		c0-2,1.6-3.6,3.6-3.6c2,0,3.6,1.6,3.6,3.6v12.7c0,1,0.8,1.8,1.8,1.8c1,0,1.8-0.8,1.8-1.8v-9.1c0-2,1.6-3.6,3.6-3.6
		c2,0,3.6,1.6,3.6,3.6v9.1c0,1,0.8,1.8,1.8,1.8c1,0,1.8-0.8,1.8-1.8v-5.4c0-2,1.6-3.6,3.6-3.6c2,0,3.6,1.6,3.6,3.6v14.1
		c0,8.1-2.4,16.1-6.9,22.9c-0.2,0.3-0.3,0.6-0.3,1v6.5h-29v-6.5c0-0.5-0.2-0.9-0.5-1.3C38.5,85.1,34,81,30.1,74
		c-2.2-4-3.9-8.3-4.9-12.7C24.2,57.4,25.9,53.3,29.2,51L29.2,51z M29.2,51"/>
</g>
<path id="XMLID_44_" class="st0" d="M63.2,84.3c0.8,0.6,2,0.3,2.5-0.5c3-4.5,5-9.5,5.8-14.8c0.2-1-0.5-1.9-1.5-2.1
	c-1-0.2-1.9,0.5-2.1,1.5c-0.8,4.8-2.6,9.3-5.3,13.4C62.1,82.6,62.4,83.7,63.2,84.3L63.2,84.3z M63.2,84.3"/>
<path id="XMLID_22_" class="st1" d="M26.7,20.4c1,0,1.8-0.8,1.8-1.8c0-6,4.9-10.9,10.9-10.9c6,0,10.9,4.9,10.9,10.9
	c0,1,0.8,1.8,1.8,1.8s1.8-0.8,1.8-1.8c0-8-6.5-14.5-14.5-14.5c-8,0-14.5,6.5-14.5,14.5C24.9,19.6,25.7,20.4,26.7,20.4L26.7,20.4z
	 M26.7,20.4"/>
</svg>
