<?xml version="1.0" encoding="utf-8"?>
<!-- Generator: Adobe Illustrator 19.0.0, SVG Export Plug-In . SVG Version: 6.00 Build 0)  -->
<svg version="1.1" id="Layer_1" xmlns="http://www.w3.org/2000/svg" xmlns:xlink="http://www.w3.org/1999/xlink" x="0px" y="0px"
	 viewBox="0 0 100 100" style="enable-background:new 0 0 100 100;" xml:space="preserve">
<style type="text/css">
	.st0{fill:#DC2827;}
	.st1{fill:#2A2B6B;}
</style>
<path id="XMLID_155_" class="st0" d="M3,75.4c-1.7,0-3-1.3-3-3V29.4c0-1.6,1.3-3,3-3h92.6c1.7,0,3,1.3,3,3v42.9c0,1.7-1.3,3-3,3H3z
	 M3,29c-0.2,0-0.4,0.2-0.4,0.4v42.9c0,0.2,0.2,0.4,0.4,0.4h92.6c0.2,0,0.4-0.2,0.4-0.4V29.4c0-0.2-0.2-0.4-0.4-0.4H3z"/>
<path id="XMLID_140_" class="st1" d="M29.9,38.5c-0.7,0-1.3-0.6-1.3-1.3c0-0.7,0.6-1.3,1.3-1.3h17.2c0.7,0,1.3,0.6,1.3,1.3
	c0,0.7-0.6,1.3-1.3,1.3H29.9z"/>
<path id="XMLID_139_" class="st1" d="M29.9,42.8c-0.7,0-1.3-0.6-1.3-1.3c0-0.7,0.6-1.3,1.3-1.3h38.6c0.7,0,1.3,0.6,1.3,1.3
	c0,0.7-0.6,1.3-1.3,1.3H29.9z"/>
<path id="XMLID_137_" class="st1" d="M29.8,51.1c-0.7,0-1.3-0.6-1.3-1.3c0-0.7,0.6-1.3,1.3-1.3h26.2c0.7,0,1.3,0.6,1.3,1.3
	c0,0.7-0.6,1.3-1.3,1.3H29.8z"/>
<path id="XMLID_127_" class="st1" d="M29.8,55.4c-0.7,0-1.3-0.6-1.3-1.3c0-0.7,0.6-1.3,1.3-1.3h56.9c0.7,0,1.3,0.6,1.3,1.3
	c0,0.7-0.6,1.3-1.3,1.3H29.8z"/>
<path id="XMLID_125_" class="st1" d="M29.8,59.7c-0.7,0-1.3-0.6-1.3-1.3c0-0.7,0.6-1.3,1.3-1.3h56.9c0.7,0,1.3,0.6,1.3,1.3
	c0,0.7-0.6,1.3-1.3,1.3H29.8z"/>
<path id="XMLID_113_" class="st0" d="M8.7,49.1V33.4h15.7v15.7H8.7z M22.1,46.8V35.7H11v11.1h0.7c0.1-1.4,0.8-2.6,1.9-3.4
	c-0.7-0.8-1.2-1.8-1.2-2.8c0-2.3,1.9-4.1,4.1-4.1c2.3,0,4.1,1.9,4.1,4.1c0,1.1-0.4,2.1-1.2,2.8c1.1,0.8,1.8,2.1,1.9,3.4H22.1z
	 M19,46.8c-0.2-1.2-1.3-2.1-2.5-2.1c-1.3,0-2.3,0.9-2.5,2.1H19z M16.5,38.7c-1,0-1.8,0.8-1.8,1.8c0,1,0.8,1.8,1.8,1.8
	s1.8-0.8,1.8-1.8C18.3,39.5,17.5,38.7,16.5,38.7z"/>
<g id="XMLID_109_">
	<path id="XMLID_110_" class="st0" d="M32,69.1c-2,0-3.6-1.6-3.6-3.6c0-2,1.6-3.6,3.6-3.6s3.6,1.6,3.6,3.6
		C35.6,67.5,34,69.1,32,69.1z M32,64.1c-0.8,0-1.4,0.6-1.4,1.4c0,0.8,0.6,1.4,1.4,1.4s1.4-0.6,1.4-1.4C33.4,64.8,32.8,64.1,32,64.1z
		"/>
</g>
<g id="XMLID_105_">
	<path id="XMLID_106_" class="st0" d="M40.5,69.1c-2,0-3.6-1.6-3.6-3.6c0-2,1.6-3.6,3.6-3.6c2,0,3.6,1.6,3.6,3.6
		C44.1,67.5,42.5,69.1,40.5,69.1z M40.5,64.1c-0.8,0-1.4,0.6-1.4,1.4c0,0.8,0.6,1.4,1.4,1.4s1.4-0.6,1.4-1.4
		C42,64.8,41.3,64.1,40.5,64.1z"/>
</g>
<g id="XMLID_104_">
	<path id="XMLID_159_" class="st0" d="M49.1,69.1c-2,0-3.6-1.6-3.6-3.6c0-2,1.6-3.6,3.6-3.6c2,0,3.6,1.6,3.6,3.6
		C52.6,67.5,51,69.1,49.1,69.1z M49.1,64.1c-0.8,0-1.4,0.6-1.4,1.4c0,0.8,0.6,1.4,1.4,1.4c0.8,0,1.4-0.6,1.4-1.4
		C50.5,64.8,49.9,64.1,49.1,64.1z"/>
</g>
</svg>
