<?xml version="1.0" encoding="utf-8"?>
<!-- Generator: Adobe Illustrator 19.0.0, SVG Export Plug-In . SVG Version: 6.00 Build 0)  -->
<svg version="1.1" id="Layer_1" xmlns="http://www.w3.org/2000/svg" xmlns:xlink="http://www.w3.org/1999/xlink" x="0px" y="0px"
	 viewBox="0 0 100 100" style="enable-background:new 0 0 100 100;" xml:space="preserve">
<style type="text/css">
	.st0{fill:#DC2827;}
	.st1{fill:#2A2B6B;}
</style>
<path id="XMLID_157_" class="st0" d="M82.4,53.2c-0.3-0.9-0.5-1.8-0.5-2.7c0-1.1,0.1-2.1,0.5-3.1h-6.2c-0.6-5-2.5-9.6-5.5-13.3
	l4.4-4.3c-0.9-0.4-1.7-1-2.4-1.7c-0.7-0.7-1.3-1.5-1.7-2.4L66.6,30c-3.7-3-8.3-5-13.3-5.5v-6.2c-0.9,0.3-1.8,0.5-2.8,0.5
	c-1,0-2-0.2-3-0.5v6.3c-5,0.6-9.6,2.5-13.3,5.5l-4.3-4.3c-0.3,0.7-0.8,1.4-1.3,2c-0.8,0.9-1.7,1.6-2.8,2.1l4.3,4.3
	c-3,3.7-5,8.3-5.5,13.3h-6.3c0.3,0.7,0.4,1.5,0.5,2.3c0.1,1.2-0.1,2.4-0.5,3.5h6.3c0.6,5,2.5,9.6,5.5,13.3l-4.3,4.3
	c0.7,0.4,1.4,0.8,2.1,1.4c0.9,0.8,1.5,1.7,2,2.7l4.3-4.3c3.7,3,8.3,5,13.3,5.5v6.2c0.8-0.3,1.6-0.4,2.5-0.5c1.1,0,2.2,0.1,3.3,0.5
	v-6.3c5-0.6,9.6-2.5,13.3-5.5l4.2,4.2c0.4-0.7,0.9-1.4,1.5-2.1c0.8-0.8,1.7-1.5,2.7-2l-4.3-4.3c3-3.7,5-8.3,5.5-13.3H82.4z
	 M30.4,53.2h8.5c0.2,5.1,1.1,10.8,3.1,15.5C35.8,65.9,31.4,60.1,30.4,53.2z M38.9,47.5h-8.5c1-6.9,5.5-12.7,11.6-15.5
	C40,36.6,39.1,42.4,38.9,47.5z M53.8,65.7c-1.5,4-3,4.9-3.4,4.9c-0.4,0-1.9-0.9-3.4-4.9c-1.3-3.4-2-7.8-2.3-12.5h11.4
	C55.9,57.9,55.1,62.3,53.8,65.7z M44.7,47.5c0.2-4.7,1-9.1,2.3-12.5c1.5-4,3-4.9,3.4-4.9c0.4,0,1.9,0.9,3.4,4.9
	c1.3,3.4,2,7.7,2.3,12.5H44.7z M58.8,68.7c2-4.7,2.8-10.4,3.1-15.5h8.5C69.4,60.1,64.9,65.9,58.8,68.7z M61.9,47.5
	c-0.2-5.1-1.1-10.8-3.1-15.5c6.1,2.8,10.6,8.6,11.6,15.5H61.9z"/>
<g id="XMLID_101_">
	<g id="XMLID_269_">
		<path id="XMLID_297_" class="st1" d="M50.2,1.9c-4.9,0-8.8,3.9-8.8,8.8c0,4.9,3.9,8.8,8.8,8.8s8.8-3.9,8.8-8.8
			C59,5.8,55,1.9,50.2,1.9z M50.2,13.9c-1.8,0-3.2-1.4-3.2-3.2c0-1.8,1.4-3.2,3.2-3.2c1.8,0,3.2,1.4,3.2,3.2
			C53.4,12.5,52,13.9,50.2,13.9z"/>
		<path id="XMLID_293_" class="st1" d="M84.2,16.1c-3.5-3.4-9-3.3-12.4,0.1c-3.4,3.5-3.3,9,0.1,12.4s9,3.3,12.4-0.1
			C87.7,25,87.6,19.5,84.2,16.1z M80.3,24.6c-1.2,1.3-3.3,1.3-4.6,0c-1.3-1.2-1.3-3.3,0-4.6c1.2-1.3,3.3-1.3,4.6,0
			C81.5,21.3,81.6,23.3,80.3,24.6z"/>
		<path id="XMLID_289_" class="st1" d="M89.6,41.6c-4.8,0.1-8.7,4.1-8.6,9c0.1,4.9,4.1,8.7,9,8.6c4.9-0.1,8.7-4.1,8.6-9
			C98.4,45.3,94.4,41.5,89.6,41.6z M89.8,53.6c-1.8,0-3.2-1.4-3.3-3.2c0-1.8,1.4-3.2,3.1-3.3c1.8,0,3.2,1.4,3.3,3.2
			C93,52.1,91.6,53.5,89.8,53.6z"/>
		<path id="XMLID_285_" class="st1" d="M84,71.9c-3.5-3.3-9.1-3.2-12.4,0.4c-3.3,3.5-3.2,9.1,0.4,12.4c3.5,3.3,9.1,3.2,12.4-0.4
			C87.7,80.8,87.5,75.3,84,71.9z M80.3,80.5c-1.2,1.3-3.3,1.3-4.5,0.1c-1.3-1.2-1.4-3.3-0.1-4.5c1.2-1.3,3.3-1.4,4.5-0.1
			C81.4,77.2,81.5,79.2,80.3,80.5z"/>
		<path id="XMLID_281_" class="st1" d="M49.8,81.2c-4.9,0.2-8.6,4.3-8.4,9.1c0.2,4.9,4.3,8.6,9.1,8.4c4.9-0.2,8.6-4.3,8.4-9.1
			C58.7,84.8,54.6,81,49.8,81.2z M50.3,93.2c-1.8,0.1-3.3-1.3-3.3-3.1c-0.1-1.8,1.3-3.3,3.1-3.3c1.8-0.1,3.3,1.3,3.3,3.1
			C53.4,91.7,52,93.1,50.3,93.2z"/>
		<path id="XMLID_278_" class="st1" d="M28.1,71.8c-3.6-3.3-9.2-3-12.4,0.6c-3.3,3.6-3,9.2,0.6,12.4s9.2,3,12.4-0.6
			C32,80.6,31.7,75,28.1,71.8z M24.6,80.5c-1.2,1.3-3.2,1.4-4.5,0.2c-1.3-1.2-1.4-3.2-0.2-4.5c1.2-1.3,3.2-1.4,4.5-0.2
			C25.7,77.1,25.8,79.1,24.6,80.5z"/>
		<path id="XMLID_274_" class="st1" d="M19.2,49.8c-0.3-4.8-4.5-8.5-9.3-8.2c-4.8,0.3-8.5,4.5-8.2,9.3c0.3,4.8,4.5,8.5,9.3,8.2
			C15.8,58.8,19.5,54.6,19.2,49.8z M10.6,53.5c-1.8,0.1-3.3-1.2-3.4-3c-0.1-1.8,1.2-3.3,3-3.4c1.8-0.1,3.3,1.2,3.4,3
			C13.8,51.9,12.4,53.4,10.6,53.5z"/>
		<path id="XMLID_270_" class="st1" d="M27.9,15.9c-3.7-3.2-9.2-2.8-12.4,0.9c-3.2,3.7-2.8,9.2,0.9,12.4c3.7,3.2,9.2,2.8,12.4-0.9
			C32,24.6,31.6,19,27.9,15.9z M24.6,24.6c-1.2,1.3-3.2,1.5-4.5,0.3c-1.3-1.2-1.5-3.2-0.3-4.5c1.2-1.3,3.2-1.5,4.5-0.3
			C25.6,21.2,25.8,23.3,24.6,24.6z"/>
	</g>
</g>
</svg>
