<?xml version="1.0" encoding="utf-8"?>
<!-- Generator: Adobe Illustrator 19.0.0, SVG Export Plug-In . SVG Version: 6.00 Build 0)  -->
<svg version="1.1" id="Layer_1" xmlns="http://www.w3.org/2000/svg" xmlns:xlink="http://www.w3.org/1999/xlink" x="0px" y="0px"
	 viewBox="0 0 100 100" style="enable-background:new 0 0 100 100;" xml:space="preserve">
<style type="text/css">
	.st0{fill:#DC2827;}
	.st1{fill:#2A2B6B;}
</style>
<path id="XMLID_54_" class="st0" d="M7.6,54.8c-1.9,0-3.4-1.5-3.4-3.4V6.6c0-1.9,1.5-3.4,3.4-3.4h34.7c1.9,0,3.4,1.5,3.4,3.4v44.8
	c0,1.8-1.5,3.4-3.4,3.4H7.6z M39,48.1V10H11v38.1H39z"/>
<path id="XMLID_48_" class="st0" d="M57.5,96.5c-1.9,0-3.4-1.5-3.4-3.4V48.3c0-1.9,1.5-3.4,3.4-3.4h34.7c1.9,0,3.4,1.5,3.4,3.4v44.8
	c0,1.8-1.5,3.4-3.4,3.4H57.5z M88.9,89.8V51.7h-28v38.1H88.9z"/>
<path id="XMLID_40_" class="st1" d="M57.5,36.8c-1.9,0-3.4-1.5-3.4-3.4V6.6c0-1.9,1.5-3.4,3.4-3.4h34.7c1.9,0,3.4,1.5,3.4,3.4v26.8
	c0,1.8-1.5,3.4-3.4,3.4H57.5z M88.9,30.1V10h-28v20.1H88.9z"/>
<path id="XMLID_77_" class="st1" d="M7.7,96.5c-1.9,0-3.4-1.5-3.4-3.4V66.3c0-1.9,1.5-3.4,3.4-3.4h34.7c1.9,0,3.4,1.5,3.4,3.4v26.8
	c0,1.8-1.5,3.4-3.4,3.4H7.7z M39.1,89.8V69.7h-28v20.1H39.1z"/>
</svg>
