<?xml version="1.0" encoding="utf-8"?>
<!-- Generator: Adobe Illustrator 19.0.0, SVG Export Plug-In . SVG Version: 6.00 Build 0)  -->
<svg version="1.1" id="Layer_1" xmlns="http://www.w3.org/2000/svg" xmlns:xlink="http://www.w3.org/1999/xlink" x="0px" y="0px"
	 viewBox="0 0 100 100" style="enable-background:new 0 0 100 100;" xml:space="preserve">
<style type="text/css">
	.st0{fill:#DC2827;}
	.st1{fill:#2A2B6B;}
</style>
<g id="XMLID_162_">
	<path id="XMLID_219_" class="st0" d="M38,54.6h-1.2c-0.6,0-1.1-0.5-1.1-1.1c0-0.2,0.1-0.4,0.3-0.6c0.7-0.7,1.3-1.6,1.7-2.6
		c0.1,0.1,0.2,0.1,0.3,0.1c0.7,0,1.5-1.5,1.5-2.5c0-1-0.1-1.9-0.8-1.9c-0.1,0-0.2,0-0.2,0c-0.1-2.8-0.7-6.3-5-6.3
		c-4.4,0-4.9,3.5-5,6.2c-0.1,0-0.1,0-0.2,0c-0.7,0-0.8,0.8-0.8,1.9c0,1,0.8,2.5,1.5,2.5c0.1,0,0.2,0,0.2-0.1c0.4,1,1,1.9,1.7,2.6
		c0.2,0.2,0.3,0.4,0.3,0.6c0,0.6-0.5,1.1-1.1,1.1h-1.2c-2.6,0-4.7,2.1-4.7,4.7v1.3c0,0.8,0.7,1.5,1.5,1.5h15.7
		c0.8,0,1.5-0.7,1.5-1.5v-1.3C42.7,56.7,40.6,54.6,38,54.6L38,54.6z M38,54.6"/>
	<path id="XMLID_216_" class="st0" d="M71.1,41.7H38.9c0.4,0.8,0.7,1.9,0.8,3.1c0.3,0.2,0.5,0.5,0.7,0.8h30.7c0.6,0,1.1-0.5,1.1-1.1
		v-1.7C72.2,42.2,71.7,41.7,71.1,41.7L71.1,41.7z M71.1,41.7"/>
	<path id="XMLID_213_" class="st0" d="M82.1,48.9H40.6c-0.3,1.2-1.1,2.4-2.1,2.7c0,0.1-0.1,0.1-0.1,0.2v1.1h43.7
		c0.6,0,1.1-0.5,1.1-1.1V50C83.2,49.4,82.7,48.9,82.1,48.9L82.1,48.9z M82.1,48.9"/>
	<path id="XMLID_207_" class="st0" d="M82.1,56.1H43.1c0.6,0.9,0.9,2,0.9,3.2V60h38c0.6,0,1.1-0.5,1.1-1.1v-1.7
		C83.2,56.6,82.7,56.1,82.1,56.1L82.1,56.1z M82.1,56.1"/>
	<path id="XMLID_186_" class="st1" d="M86.8,30.7H20.4c-3.7,0-6.8,3-6.8,6.8v26.8c0,3.7,3,6.8,6.8,6.8h66.4c3.7,0,6.8-3,6.8-6.8
		V37.5C93.6,33.8,90.5,30.7,86.8,30.7L86.8,30.7z M90.4,64.3c0,2-1.6,3.6-3.6,3.6H20.4c-2,0-3.6-1.6-3.6-3.6V37.5
		c0-2,1.6-3.6,3.6-3.6h66.4c2,0,3.6,1.6,3.6,3.6V64.3z M90.4,64.3"/>
	<path id="XMLID_179_" class="st0" d="M12.5,26.7h66.4c1.5,0,2.8,0.9,3.3,2.2h3.3c-0.6-3.1-3.4-5.4-6.6-5.4H12.5
		c-3.7,0-6.7,3-6.7,6.7v26.8c0,3.5,2.7,6.4,6.1,6.7v-3.2c-1.7-0.3-2.9-1.8-2.9-3.5V30.2C8.9,28.3,10.5,26.7,12.5,26.7L12.5,26.7z
		 M12.5,26.7"/>
</g>
</svg>
