<svg xmlns="http://www.w3.org/2000/svg" width="50" height="50"><defs><clipPath id="clip-Artboard_34"><path d="M0 0h50v50H0z"/></clipPath></defs><g id="Artboard_34" data-name="Artboard – 34" clip-path="url(#clip-Artboard_34)"><path id="Icon_awesome-app-store" data-name="Icon awesome-app-store" d="M23.777 11.135l.852-1.47a1.913 1.913 0 113.315 1.91L19.75 25.762h5.928a2.623 2.623 0 012.163 3.821H10.47a1.91 1.91 0 110-3.821h4.869l6.237-10.806-1.948-3.381a1.913 1.913 0 113.315-1.91l.833 1.47zm-7.37 20.414l-1.835 3.184a1.913 1.913 0 01-3.315-1.91l1.367-2.36a3.262 3.262 0 013.783 1.086zm15.816-5.778H37.2a1.91 1.91 0 110 3.821h-2.767l1.867 3.23a1.913 1.913 0 11-3.315 1.91q-4.706-8.161-7.061-12.23a5.275 5.275 0 01.674-6.471q1.882 3.231 5.628 9.739zM23.786.563a23.223 23.223 0 1023.223 23.223A23.219 23.219 0 0023.786.563zm20.227 23.223A20.227 20.227 0 1123.786 3.559a20.226 20.226 0 0120.227 20.227z" transform="translate(2.15 1.877)" fill="#2595ff"/></g></svg>