<?xml version="1.0" encoding="iso-8859-1"?>
<!-- Generator: Adobe Illustrator 19.1.0, SVG Export Plug-In . SVG Version: 6.00 Build 0)  -->
<svg version="1.1" id="Capa_1" xmlns="http://www.w3.org/2000/svg" xmlns:xlink="http://www.w3.org/1999/xlink" x="0px" y="0px"
	 viewBox="0 0 62.981 62.981" style="enable-background:new 0 0 62.981 62.981;" xml:space="preserve">
<g>
	<g id="group-72svg">
		<path id="path-1_119_" d="M55.063,62.98c-0.303,0-0.604-0.091-0.861-0.272L31.063,46.471L7.924,62.708
			c-0.456,0.322-0.842,0.362-1.34,0.103C6.088,62.553,5.99,62.04,5.99,61.48V5.691C5.99,2.5,7.973,0,11.051,0H51.05
			c3.091,0,5.94,2.5,5.94,5.691V61.48c0,0.56-0.526,1.073-1.021,1.331C55.751,62.925,55.299,62.98,55.063,62.98z M31.063,43.139
			c0.302,0,0.817,0.09,1.074,0.272L53.99,58.596V5.691C53.99,4.132,52.507,3,51.05,3H11.051C9.609,3,8.99,4.132,8.99,5.691v52.905
			l21.426-15.185C30.674,43.229,30.761,43.139,31.063,43.139z"/>
		<path id="path-2_118_" d="M53.563,12h-46c-0.828,0-1.5-0.672-1.5-1.5S6.735,9,7.563,9h46c0.828,0,1.5,0.672,1.5,1.5
			S54.391,12,53.563,12z"/>
		<path id="path-3_109_" d="M35.638,37.597c-0.239,0-0.478-0.057-0.698-0.173l-3.942-2.073l-3.943,2.073
			c-0.504,0.267-1.117,0.221-1.58-0.114c-0.462-0.335-0.693-0.904-0.596-1.466l0.753-4.392l-3.19-3.108
			c-0.409-0.399-0.556-0.995-0.38-1.538c0.177-0.543,0.647-0.939,1.211-1.021l4.408-0.641l1.972-3.995
			c0.252-0.511,0.773-0.836,1.345-0.836c0.571,0,1.093,0.325,1.344,0.836l1.972,3.995l4.408,0.641
			c0.565,0.082,1.035,0.478,1.211,1.021c0.176,0.543,0.03,1.139-0.38,1.538l-3.189,3.108l0.753,4.392
			c0.097,0.562-0.135,1.131-0.597,1.466C36.259,37.5,35.949,37.597,35.638,37.597z M30.998,32.156c0.24,0,0.479,0.058,0.698,0.173
			l1.95,1.025l-0.372-2.172c-0.083-0.487,0.078-0.983,0.432-1.328l1.577-1.537L33.102,28c-0.488-0.071-0.911-0.378-1.129-0.82
			l-0.975-1.977l-0.976,1.977c-0.218,0.442-0.64,0.749-1.129,0.82l-2.18,0.317l1.577,1.537c0.353,0.345,0.514,0.841,0.431,1.328
			l-0.372,2.172l1.951-1.025C30.518,32.214,30.758,32.156,30.998,32.156z"/>
	</g>
</g>
<g>
</g>
<g>
</g>
<g>
</g>
<g>
</g>
<g>
</g>
<g>
</g>
<g>
</g>
<g>
</g>
<g>
</g>
<g>
</g>
<g>
</g>
<g>
</g>
<g>
</g>
<g>
</g>
<g>
</g>
</svg>
