<svg xmlns="http://www.w3.org/2000/svg" width="50" height="50"><defs><clipPath id="clip-Artboard_42"><path d="M0 0h50v50H0z"/></clipPath></defs><g id="Artboard_42" data-name="Artboard – 42" clip-path="url(#clip-Artboard_42)"><path id="Icon_awesome-image" data-name="Icon awesome-image" d="M42.342 39.541H4.38A4.38 4.38 0 010 35.161V8.88A4.38 4.38 0 014.38 4.5h37.962a4.38 4.38 0 014.38 4.38v26.281a4.38 4.38 0 01-4.38 4.38zM10.22 9.61a5.11 5.11 0 105.11 5.11 5.11 5.11 0 00-5.11-5.11zM5.84 33.7h35.041V23.481L32.9 15.495a1.1 1.1 0 00-1.549 0l-12.37 12.366-5.066-5.066a1.1 1.1 0 00-1.549 0L5.84 29.321z" transform="translate(2.113 3.76)" fill="#251e60"/></g></svg>