<svg xmlns="http://www.w3.org/2000/svg" width="50" height="50"><defs><clipPath id="clip-Artboard_32"><path d="M0 0h50v50H0z"/></clipPath></defs><g id="Artboard_32" data-name="Artboard – 32" clip-path="url(#clip-Artboard_32)"><path id="Icon_metro-file-pdf" data-name="Icon metro-file-pdf" d="M42.258 12.477a6.291 6.291 0 011.3 2.055 6.239 6.239 0 01.541 2.379v31.144a2.585 2.585 0 01-2.6 2.6H5.166a2.585 2.585 0 01-2.6-2.6V4.8a2.5 2.5 0 01.762-1.84 2.5 2.5 0 011.838-.76H29.39a6.241 6.241 0 012.379.541 6.291 6.291 0 012.055 1.3zm-12-6.6v10.168H40.42a2.954 2.954 0 00-.595-1.108l-8.462-8.462a2.953 2.953 0 00-1.108-.595zM40.636 47.19V19.506H29.39a2.585 2.585 0 01-2.6-2.6V5.664H6.031V47.19h34.605zM26.74 31.158a20.569 20.569 0 002.271 1.514 26.828 26.828 0 013.163-.189q3.974 0 4.785 1.325a1.307 1.307 0 01.054 1.406.078.078 0 01-.027.054l-.054.054v.027q-.162 1.027-1.919 1.027a11.152 11.152 0 01-3.109-.541 19.713 19.713 0 01-3.515-1.435 48.681 48.681 0 00-10.6 2.244q-4.136 7.083-6.543 7.083a1.572 1.572 0 01-.757-.189l-.649-.324q-.027-.027-.162-.135a1.117 1.117 0 01-.162-.973 5.871 5.871 0 011.514-2.474 13.066 13.066 0 013.57-2.607.394.394 0 01.622.162.156.156 0 01.054.108q1.406-2.3 2.893-5.326a41.262 41.262 0 002.812-7.083 21.854 21.854 0 01-.825-4.312 10.512 10.512 0 01.176-3.447q.3-1.081 1.135-1.081h.595a1.14 1.14 0 01.946.406 2.159 2.159 0 01.243 1.838.586.586 0 01-.108.216.7.7 0 01.027.216v.811a35.4 35.4 0 01-.378 5.191 13.678 13.678 0 003.947 6.434zM11.168 42.27q1.406-.649 3.7-4.272a15.412 15.412 0 00-2.366 2.271 8.986 8.986 0 00-1.334 2.001zm10.76-24.87a8.039 8.039 0 00-.054 3.569q.027-.189.189-1.19 0-.081.189-1.162a.608.608 0 01.108-.216.078.078 0 01-.027-.054.055.055 0 00-.014-.041.055.055 0 01-.014-.041 1.556 1.556 0 00-.351-.973.078.078 0 01-.027.054v.054zm-3.352 17.87a39.654 39.654 0 017.678-2.19 4.079 4.079 0 01-.351-.257 4.841 4.841 0 01-.433-.365 14.32 14.32 0 01-3.434-4.758 36.127 36.127 0 01-2.244 5.326q-.811 1.514-1.217 2.244zm17.465-.433q-.649-.649-3.785-.649a10.226 10.226 0 003.352.757 2.623 2.623 0 00.487-.027q0-.027-.054-.081z" transform="translate(1.963 -1.765)" fill="#cd2f2f"/></g></svg>