<svg height="50" width="50" xmlns="http://www.w3.org/2000/svg"><clipPath id="a"><path d="M0 0h50v50H0z"/></clipPath><g clip-path="url(#a)"><path d="M25.705 2.551h-.078a23.168 23.168 0 00.011 46.335h.078a23.168 23.168 0 10-.011-46.335zm20.071 21.608h-8.643a43.863 43.863 0 00-1.092-8.483 33.931 33.931 0 005.536-2.339 19.955 19.955 0 014.199 10.822zm-21.631 0h-6.883a39.59 39.59 0 01.98-7.7 33.887 33.887 0 005.9.791zm0 3.119v6.898a34.031 34.031 0 00-5.9.791 39.585 39.585 0 01-.983-7.691zm3.119 0h6.828a39.357 39.357 0 01-.98 7.674 33.247 33.247 0 00-5.85-.776zm0-3.119v-6.905a34.031 34.031 0 005.848-.78 39.473 39.473 0 01.98 7.685zm12.185-13.132a30.944 30.944 0 01-4.233 1.726 23 23 0 00-2.954-6.07 20.156 20.156 0 017.187 4.344zm-7.173 2.529a31.347 31.347 0 01-5.012.668V6.048c1.898 1.028 3.742 3.776 5.012 7.508zm-8.131-7.552v8.209a30.806 30.806 0 01-5.068-.679c1.292-3.765 3.164-6.517 5.068-7.53zm-5.083.713a23.179 23.179 0 00-2.929 6.026 31.639 31.639 0 01-4.171-1.716 19.854 19.854 0 017.1-4.31zm-9.234 6.627a33.259 33.259 0 005.48 2.317 42.1 42.1 0 00-1.092 8.487H5.645a19.852 19.852 0 014.188-10.804zM5.633 27.276h8.576a43.75 43.75 0 001.092 8.487 35.289 35.289 0 00-5.48 2.317 19.958 19.958 0 01-4.188-10.804zm6.315 13.132a31.172 31.172 0 014.188-1.715 23.262 23.262 0 002.926 6.039 20.348 20.348 0 01-7.113-4.322zm7.129-2.517a30.968 30.968 0 015.068-.679v8.22c-1.916-1.012-3.776-3.774-5.068-7.539zm8.187 7.5v-8.189a31.347 31.347 0 015.012.668c-1.27 3.743-3.114 6.494-5.014 7.519zm5.012-.635a23 23 0 002.952-6.07 30.432 30.432 0 014.234 1.735 20.387 20.387 0 01-7.186 4.333zm9.3-6.661a33.931 33.931 0 00-5.536-2.339 43.635 43.635 0 001.093-8.48h8.643a19.868 19.868 0 01-4.199 10.817z" fill="#251e60"/></g></svg>